HIERARCHY
ROOT Hips
{
  OFFSET 5.84602e-005 68.8428 3.50346
  CHANNELS 6 Xposition Yposition Zposition Zrotation Xrotation Yrotation
  JOINT Spine
  {
    OFFSET 0 8.597 -4.6522
    CHANNELS 3 Zrotation Xrotation Yrotation
    JOINT Spine1
    {
      OFFSET 0 7.8454 0.4098
      CHANNELS 3 Zrotation Xrotation Yrotation
      JOINT Spine2
      {
        OFFSET 0 9.7078 -2.1609
        CHANNELS 3 Zrotation Xrotation Yrotation
        JOINT Neck
        {
          OFFSET 0 21.8761 -0.4549
          CHANNELS 3 Zrotation Xrotation Yrotation
          JOINT Head
          {
            OFFSET 0 12.3537 3.3602
            CHANNELS 3 Zrotation Xrotation Yrotation
            End Site
            {
              OFFSET 0.0001 18.9506 0.5657
            }
          }
        }
        JOINT LeftShoulder
        {
          OFFSET 2.2086 21.1115 7.2329
          CHANNELS 3 Zrotation Xrotation Yrotation
          JOINT LeftArm
          {
            OFFSET 13.1193 3.0282 -4.8998
            CHANNELS 3 Zrotation Xrotation Yrotation
            JOINT LeftForeArm
            {
              OFFSET 27.4081 -0.0973053 -0.2375
              CHANNELS 3 Zrotation Xrotation Yrotation
              JOINT LeftHand
              {
                OFFSET 22.8641 0.0662994 -0.1369
                CHANNELS 3 Zrotation Xrotation Yrotation
                JOINT LeftHandIndex1
                {
                  OFFSET 8.8614 0.775009 2.4612
                  CHANNELS 3 Zrotation Xrotation Yrotation
                  JOINT LeftHandIndex2
                  {
                    OFFSET 3.3146 -0.808304 0.5841
                    CHANNELS 3 Zrotation Xrotation Yrotation
                    JOINT LeftHandIndex3
                    {
                      OFFSET 2.2628 -0.552002 0.3989
                      CHANNELS 3 Zrotation Xrotation Yrotation
                      End Site
                      {
                        OFFSET 1.6102 -0.4807 0.2612
                      }
                    }
                  }
                }
                JOINT LeftHandMiddle1
                {
                  OFFSET 8.9937 0.895004 0.2143
                  CHANNELS 3 Zrotation Xrotation Yrotation
                  JOINT LeftHandMiddle2
                  {
                    OFFSET 4.0984 0.0113983 -0.0242
                    CHANNELS 3 Zrotation Xrotation Yrotation
                    JOINT LeftHandMiddle3
                    {
                      OFFSET 2.2716 0.00689697 -0.0138001
                      CHANNELS 3 Zrotation Xrotation Yrotation
                      End Site
                      {
                        OFFSET 2.0404 -0.1441 0.0027
                      }
                    }
                  }
                }
                JOINT LeftHandRing1
                {
                  OFFSET 8.5234 0.597198 -2.0164
                  CHANNELS 3 Zrotation Xrotation Yrotation
                  JOINT LeftHandRing2
                  {
                    OFFSET 3.7188 -0.188293 -0.2328
                    CHANNELS 3 Zrotation Xrotation Yrotation
                    JOINT LeftHandRing3
                    {
                      OFFSET 2.1191 -0.106598 -0.1332
                      CHANNELS 3 Zrotation Xrotation Yrotation
                      End Site
                      {
                        OFFSET 1.8737 -0.2304 -0.0886
                      }
                    }
                  }
                }
                JOINT LeftHandPinky1
                {
                  OFFSET 7.9094 -0.601089 -3.4825
                  CHANNELS 3 Zrotation Xrotation Yrotation
                  JOINT LeftHandPinky2
                  {
                    OFFSET 2.2874 -0.477005 -0.6314
                    CHANNELS 3 Zrotation Xrotation Yrotation
                    JOINT LeftHandPinky3
                    {
                      OFFSET 1.6774 -0.349396 -0.4633
                      CHANNELS 3 Zrotation Xrotation Yrotation
                      End Site
                      {
                        OFFSET 1.4888 -0.4091 -0.3416
                      }
                    }
                  }
                }
                JOINT LeftHandThumb1
                {
                  OFFSET 1.833 -1.3875 1.3896
                  CHANNELS 3 Zrotation Xrotation Yrotation
                  JOINT LeftHandThumb2
                  {
                    OFFSET 3.4129 -1.121 2.5732
                    CHANNELS 3 Zrotation Xrotation Yrotation
                    JOINT LeftHandThumb3
                    {
                      OFFSET 2.2474 -0.804199 1.6192
                      CHANNELS 3 Zrotation Xrotation Yrotation
                      End Site
                      {
                        OFFSET 1.6527 -0.5689 1.1317
                      }
                    }
                  }
                }
              }
            }
          }
        }
        JOINT RightShoulder
        {
          OFFSET -2.2086 21.1115 7.2329
          CHANNELS 3 Zrotation Xrotation Yrotation
          JOINT RightArm
          {
            OFFSET -13.1216 3.0287 -4.9007
            CHANNELS 3 Zrotation Xrotation Yrotation
            JOINT RightForeArm
            {
              OFFSET -27.4081 -0.0973053 -0.2375
              CHANNELS 3 Zrotation Xrotation Yrotation
              JOINT RightHand
              {
                OFFSET -22.8641 0.0664063 -0.1369
                CHANNELS 3 Zrotation Xrotation Yrotation
                JOINT RightHandIndex1
                {
                  OFFSET -8.8614 0.774994 2.4612
                  CHANNELS 3 Zrotation Xrotation Yrotation
                  JOINT RightHandIndex2
                  {
                    OFFSET -3.3146 -0.808304 0.5841
                    CHANNELS 3 Zrotation Xrotation Yrotation
                    JOINT RightHandIndex3
                    {
                      OFFSET -2.2628 -0.552002 0.3989
                      CHANNELS 3 Zrotation Xrotation Yrotation
                      End Site
                      {
                        OFFSET -1.6102 -0.4807 0.2612
                      }
                    }
                  }
                }
                JOINT RightHandMiddle1
                {
                  OFFSET -8.9937 0.894989 0.2143
                  CHANNELS 3 Zrotation Xrotation Yrotation
                  JOINT RightHandMiddle2
                  {
                    OFFSET -4.0984 0.0113983 -0.0242
                    CHANNELS 3 Zrotation Xrotation Yrotation
                    JOINT RightHandMiddle3
                    {
                      OFFSET -2.2716 0.00691223 -0.0138001
                      CHANNELS 3 Zrotation Xrotation Yrotation
                      End Site
                      {
                        OFFSET -2.0404 -0.1441 0.0027
                      }
                    }
                  }
                }
                JOINT RightHandRing1
                {
                  OFFSET -8.5234 0.597198 -2.0164
                  CHANNELS 3 Zrotation Xrotation Yrotation
                  JOINT RightHandRing2
                  {
                    OFFSET -3.7188 -0.188309 -0.2328
                    CHANNELS 3 Zrotation Xrotation Yrotation
                    JOINT RightHandRing3
                    {
                      OFFSET -2.1191 -0.106598 -0.1332
                      CHANNELS 3 Zrotation Xrotation Yrotation
                      End Site
                      {
                        OFFSET -1.8737 -0.2304 -0.0886
                      }
                    }
                  }
                }
                JOINT RightHandPinky1
                {
                  OFFSET -7.9094 -0.601105 -3.4825
                  CHANNELS 3 Zrotation Xrotation Yrotation
                  JOINT RightHandPinky2
                  {
                    OFFSET -2.2874 -0.477005 -0.6314
                    CHANNELS 3 Zrotation Xrotation Yrotation
                    JOINT RightHandPinky3
                    {
                      OFFSET -1.6774 -0.349396 -0.4633
                      CHANNELS 3 Zrotation Xrotation Yrotation
                      End Site
                      {
                        OFFSET -1.4888 -0.4091 -0.3416
                      }
                    }
                  }
                }
                JOINT RightHandThumb1
                {
                  OFFSET -1.833 -1.38751 1.3896
                  CHANNELS 3 Zrotation Xrotation Yrotation
                  JOINT RightHandThumb2
                  {
                    OFFSET -3.41299 -1.12099 2.5732
                    CHANNELS 3 Zrotation Xrotation Yrotation
                    JOINT RightHandThumb3
                    {
                      OFFSET -2.24741 -0.804108 1.6192
                      CHANNELS 3 Zrotation Xrotation Yrotation
                      End Site
                      {
                        OFFSET -1.6527 -0.5689 1.1317
                      }
                    }
                  }
                }
              }
            }
          }
        }
      }
    }
  }
  JOINT RightUpLeg
  {
    OFFSET -9.1966 3.8861 -0.7581
    CHANNELS 3 Zrotation Xrotation Yrotation
    JOINT RightLeg
    {
      OFFSET -0.7359 -41.0265 0
      CHANNELS 3 Zrotation Xrotation Yrotation
      JOINT RightFoot
      {
        OFFSET 0 -40.2855 0
        CHANNELS 3 Zrotation Xrotation Yrotation
        JOINT RightToeBase
        {
          OFFSET 0 -5.6122 11.7359
          CHANNELS 3 Zrotation Xrotation Yrotation
          End Site
          {
            OFFSET 0 0 7.8731
          }
        }
      }
    }
  }
  JOINT LeftUpLeg
  {
    OFFSET 9.1965 3.8864 -0.7581
    CHANNELS 3 Zrotation Xrotation Yrotation
    JOINT LeftLeg
    {
      OFFSET 0.7359 -41.0268 0
      CHANNELS 3 Zrotation Xrotation Yrotation
      JOINT LeftFoot
      {
        OFFSET 0 -40.2855 0
        CHANNELS 3 Zrotation Xrotation Yrotation
        JOINT LeftToeBase
        {
          OFFSET 0 -5.6122 11.7359
          CHANNELS 3 Zrotation Xrotation Yrotation
          End Site
          {
            OFFSET 0 0 7.8731
          }
        }
      }
    }
  }
}
MOTION
Frames:	6
Frame Time:	0.0333333
39.7363 37.071 22.5103 -179.996 51.0054 8.95158e-011 -0.172885 -1.98781 0.1347 -0.341399 -3.97602 0.263633 -0.341399 -3.97601 0.263633 1.84113e-006 15.9935 -1.23463e-006 -1.33125e-007 21.9179 1.19372e-007 6.16073 1.44713 17.8843 -16.3289 57.9588 27.8554 32.0965 48.6369 -73.317 0.559474 -1.45497 8.28398 9.54166e-015 -1.90833e-014 6.36111e-015 7.63654e-007 3.11403e-007 -2.17018e-007 1.59028e-014 -1.27222e-014 -9.54166e-015 9.54166e-015 -1.90833e-014 6.36111e-015 -0.0146064 -8.78713e-005 1.80067e-006 9.54166e-015 -3.18055e-015 1.90833e-014 9.54166e-015 -1.90833e-014 6.36111e-015 -0.0187789 -0.00117472 6.45172e-005 -1.76556e-031 -3.18055e-015 -3.18055e-015 9.54166e-015 -1.90833e-014 6.36111e-015 -0.0122778 -0.00324966 0.000684445 2.73788e-007 2.71041e-007 1.98021e-006 9.54166e-015 -1.90833e-014 6.36111e-015 7.63654e-007 3.11403e-007 -2.17018e-007 1.59028e-014 -1.27222e-014 -9.54166e-015 -6.18127 1.45136 -17.9018 20.0248 56.9874 -32.3561 -32.116 48.6231 73.3074 -0.573334 -1.45399 -8.27715 -1.00578e-006 9.73407e-007 3.6167e-006 1.91196e-008 -3.11185e-007 1.94685e-006 -1.54552e-006 9.20344e-007 -1.49573e-006 -1.00578e-006 9.73407e-007 3.6167e-006 0.0149728 -8.75324e-005 1.84016e-006 -1.14479e-006 4.56914e-007 3.38276e-007 -1.00578e-006 9.73407e-007 3.6167e-006 0.0189963 -0.00119028 -5.58881e-005 -1.14479e-006 4.56924e-007 3.38271e-007 -1.00578e-006 9.73407e-007 3.6167e-006 0.0122818 -0.00325242 -0.000674125 -1.5471e-006 9.20581e-007 -1.4957e-006 -1.00578e-006 9.73407e-007 3.6167e-006 1.91196e-008 -3.11185e-007 1.94685e-006 -1.54552e-006 9.20344e-007 -1.49573e-006 -46.0013 32.0699 -29.5223 -70.4093 38.7999 70.6384 12.4061 14.0429 17.2551 -3.10739e-006 -1.53011e-006 3.9822e-007 44.785 32.3012 28.8803 70.9742 39.0966 -71.034 -14.1452 13.6165 -15.9281 -3.97569e-015 -1.59028e-015 3.18055e-015 
39.7364 37.0709 22.5104 -179.996 51.0054 8.95158e-011 -0.172729 -1.95772 0.134978 -0.341138 -3.91577 0.264279 -0.341138 -3.91578 0.264278 -4.26823e-006 15.9931 3.15241e-006 8.01708e-008 21.341 -3.11418e-007 6.16072 1.44708 17.8844 -16.3097 57.9632 27.8322 32.0965 48.6369 -73.317 0.559464 -1.45496 8.28397 1.14595e-006 4.66959e-007 -3.23971e-007 3.81985e-007 1.55653e-007 -1.0799e-007 -3.81985e-007 -1.55653e-007 1.0799e-007 1.14595e-006 4.66959e-007 -3.23971e-007 -0.0145977 -8.70583e-005 9.02354e-006 -6.64812e-007 -4.09848e-007 -1.86714e-006 1.14595e-006 4.66959e-007 -3.23971e-007 -0.0187563 -0.0011737 6.08534e-005 -6.6535e-007 -4.09916e-007 -1.86714e-006 1.14595e-006 4.66959e-007 -3.23971e-007 -0.0122484 -0.00324155 0.000676088 -3.81981e-007 -1.55662e-007 1.07984e-007 1.14595e-006 4.66959e-007 -3.23971e-007 3.81985e-007 1.55653e-007 -1.0799e-007 -3.81985e-007 -1.55653e-007 1.0799e-007 -6.18127 1.45131 -17.9018 20.0248 56.9874 -32.3561 -32.116 48.6231 73.3074 -0.57333 -1.45399 -8.27714 -7.63497e-007 3.0451e-007 2.24554e-007 6.36111e-015 -1.27222e-014 -3.18055e-015 -7.63498e-007 3.0451e-007 2.24554e-007 -7.63497e-007 3.0451e-007 2.24554e-007 0.0149812 -8.97384e-005 -5.34441e-006 -7.6349e-007 3.04539e-007 2.24515e-007 -7.63497e-007 3.0451e-007 2.24554e-007 0.019027 -0.00119343 -6.57841e-005 -7.63487e-007 3.04546e-007 2.24511e-007 -7.63497e-007 3.0451e-007 2.24554e-007 0.0123143 -0.00326035 -0.000681122 -7.63487e-007 3.04528e-007 2.24543e-007 -7.63497e-007 3.0451e-007 2.24554e-007 6.36111e-015 -1.27222e-014 -3.18055e-015 -7.63498e-007 3.0451e-007 2.24554e-007 -45.6865 32.1676 -29.3549 -70.4102 38.8001 70.644 12.7907 13.9975 16.8785 1.81938e-006 -4.66813e-007 7.57688e-009 44.5616 32.3727 28.7447 70.9744 39.0966 -71.0377 -14.4176 13.5734 -15.6603 -5.56597e-015 1.59028e-015 -0 
39.7366 37.0708 22.5105 -179.996 51.0054 8.95158e-011 -0.172574 -1.9276 0.135257 -0.34088 -3.8556 0.264926 -0.34088 -3.85559 0.264926 -1.71838e-005 15.993 9.29447e-006 1.35206e-008 20.7643 -9.02673e-008 6.16073 1.44712 17.8844 -16.2905 57.9677 27.809 32.0965 48.6369 -73.317 0.559474 -1.45497 8.28397 8.59771e-007 -1.67256e-007 3.05714e-006 -4.77629e-007 3.2286e-007 -3.16461e-006 -2.86655e-007 -6.34068e-007 3.37955e-006 8.59771e-007 -1.67256e-007 3.05714e-006 -0.0146219 -8.57152e-005 -4.32979e-006 -2.86803e-007 -6.345e-007 3.37947e-006 8.59771e-007 -1.67256e-007 3.05714e-006 -0.0187446 -0.00117593 5.67071e-005 5.35878e-009 -3.96812e-007 5.34936e-006 8.59771e-007 -1.67256e-007 3.05714e-006 -0.0122669 -0.00324658 0.000669695 -2.86689e-007 -6.34462e-007 3.3795e-006 8.59771e-007 -1.67256e-007 3.05714e-006 -4.77629e-007 3.2286e-007 -3.16461e-006 -2.86655e-007 -6.34068e-007 3.37955e-006 -6.18127 1.45134 -17.9018 20.0248 56.9874 -32.3561 -32.116 48.6231 73.3074 -0.573338 -1.45399 -8.27714 -7.63792e-007 3.04439e-007 2.23551e-007 -0 0 3.18055e-015 -7.63792e-007 3.04439e-007 2.23551e-007 -7.63792e-007 3.04439e-007 2.23551e-007 0.0149917 -9.42966e-005 1.98744e-006 -3.41518e-007 -1.27669e-007 2.04782e-006 -7.63792e-007 3.04439e-007 2.23551e-007 0.0190117 -0.00119183 -5.94034e-005 -7.63781e-007 3.04475e-007 2.23508e-007 -7.63792e-007 3.04439e-007 2.23551e-007 0.0122664 -0.0032467 -0.000672206 -7.63782e-007 3.04457e-007 2.2354e-007 -7.63792e-007 3.04439e-007 2.23551e-007 -0 0 3.18055e-015 -7.63792e-007 3.04439e-007 2.23551e-007 -45.3716 32.2661 -29.1879 -70.4111 38.8002 70.6497 13.1749 13.9495 16.5022 -1.64214e-006 -3.54124e-007 1.30745e-007 44.3382 32.4446 28.6094 70.9747 39.0966 -71.0414 -14.6897 13.529 -15.3926 1.64117e-006 -3.51706e-007 -1.3303e-007 
39.7367 37.0707 22.5106 -179.996 51.0054 8.95158e-011 -0.172418 -1.89753 0.135535 -0.340622 -3.79542 0.265572 -0.340622 -3.7954 0.265572 2.7994e-006 15.9935 -2.34679e-006 2.66213e-007 20.1876 -3.88277e-008 6.16073 1.44713 17.8843 -16.2713 57.9721 27.7858 32.0965 48.6369 -73.317 0.559476 -1.45497 8.28397 0 6.36111e-015 -0 -3.82298e-007 -1.55555e-007 1.06952e-007 3.18055e-015 0 -3.18055e-015 0 6.36111e-015 -0 -0.0146145 -8.81922e-005 5.17859e-006 6.36111e-015 6.36111e-015 6.36111e-015 0 6.36111e-015 -0 -0.018757 -0.00117283 6.14623e-005 1.72182e-007 -5.46079e-007 1.20057e-006 0 6.36111e-015 -0 -0.0122971 -0.00325368 0.000687454 1.7308e-007 -5.46295e-007 1.20068e-006 0 6.36111e-015 -0 -3.82298e-007 -1.55555e-007 1.06952e-007 3.18055e-015 0 -3.18055e-015 -6.18127 1.45135 -17.9018 20.0248 56.9874 -32.3561 -32.116 48.6231 73.3074 -0.573335 -1.45399 -8.27713 1.09796e-006 -1.91926e-007 -2.26444e-006 -0 0 3.18055e-015 1.95838e-006 -1.02555e-006 1.37425e-006 1.09796e-006 -1.91926e-007 -2.26444e-006 0.0149884 -8.8848e-005 2.2897e-006 1.52816e-006 -6.08794e-007 -4.45017e-007 1.09796e-006 -1.91926e-007 -2.26444e-006 0.0190381 -0.00119074 -6.19437e-005 1.52815e-006 -6.08808e-007 -4.4501e-007 1.09796e-006 -1.91926e-007 -2.26444e-006 0.0122256 -0.00323863 -0.000669535 1.52815e-006 -6.08771e-007 -4.45073e-007 1.09796e-006 -1.91926e-007 -2.26444e-006 -0 0 3.18055e-015 1.95838e-006 -1.02555e-006 1.37425e-006 -45.0568 32.3654 -29.0215 -70.412 38.8004 70.6555 13.5587 13.8991 16.1264 1.76556e-031 1.59028e-015 -6.36111e-015 44.1149 32.517 28.4743 70.975 39.0967 -71.0451 -14.9615 13.4834 -15.1253 1.59028e-015 0 -3.18055e-015 
39.7368 37.0706 22.5107 -179.996 51.0054 8.95158e-011 -0.172263 -1.86742 0.135813 -0.340364 -3.73525 0.266216 -0.340364 -3.73522 0.266216 2.04733e-006 15.9933 -1.94302e-006 -7.41136e-008 19.611 1.25676e-007 6.16073 1.44716 17.8843 -16.2521 57.9766 27.7625 32.0965 48.6369 -73.317 0.559469 -1.45496 8.28398 -7.50558e-008 4.9638e-008 2.06593e-006 -1.14736e-006 -4.66518e-007 3.19299e-007 -3.82454e-007 -1.55506e-007 1.06433e-007 -7.50558e-008 4.9638e-008 2.06593e-006 -0.0146148 -8.52032e-005 4.53025e-006 -3.82451e-007 -1.55519e-007 1.06413e-007 -7.50558e-008 4.9638e-008 2.06593e-006 -0.0187526 -0.00117493 6.24963e-005 -7.26784e-008 4.94476e-008 2.06593e-006 -7.50558e-008 4.9638e-008 2.06593e-006 -0.012223 -0.00323078 0.000682422 -3.8245e-007 -1.55514e-007 1.06427e-007 -7.50558e-008 4.9638e-008 2.06593e-006 -1.14736e-006 -4.66518e-007 3.19299e-007 -3.82454e-007 -1.55506e-007 1.06433e-007 -6.18127 1.45137 -17.9018 20.0248 56.9874 -32.3561 -32.116 48.6231 73.3074 -0.573329 -1.45399 -8.27714 3.18239e-007 -9.23902e-007 -1.46463e-006 3.24338e-007 9.69584e-008 -2.03597e-006 7.64377e-007 -3.04296e-007 -2.21544e-007 3.18239e-007 -9.23902e-007 -1.46463e-006 0.0150101 -8.87191e-005 -5.09219e-006 7.64369e-007 -3.04325e-007 -2.21505e-007 3.18239e-007 -9.23902e-007 -1.46463e-006 0.01899 -0.00118927 -6.49485e-005 7.64365e-007 -3.04332e-007 -2.21502e-007 3.18239e-007 -9.23902e-007 -1.46463e-006 0.0122158 -0.00323324 -0.000678825 7.64366e-007 -3.04314e-007 -2.21533e-007 3.18239e-007 -9.23902e-007 -1.46463e-006 3.24338e-007 9.69584e-008 -2.03597e-006 7.64377e-007 -3.04296e-007 -2.21544e-007 -44.742 32.4654 -28.8554 -70.4129 38.8005 70.6612 13.942 13.8463 15.7511 -7.95139e-016 -1.59028e-015 6.36111e-015 43.8916 32.5898 28.3394 70.9752 39.0967 -71.0488 -15.2331 13.4366 -14.8582 -1.75792e-007 -8.20558e-007 -1.42385e-007 
39.7369 37.0705 22.5108 -179.996 51.0054 8.95158e-011 -0.172105 -1.83734 0.136089 -0.340103 -3.67502 0.266858 -0.340103 -3.67502 0.266858 -9.1453e-006 15.9933 8.0794e-006 1.68483e-007 19.0346 -1.00664e-007 6.16072 1.44706 17.8844 -16.233 57.981 27.7393 32.0965 48.6369 -73.317 0.559474 -1.45497 8.28397 9.54166e-015 3.18055e-015 -0 1.14783e-006 4.6637e-007 -3.17741e-007 6.36111e-015 4.77083e-015 3.18055e-015 9.54166e-015 3.18055e-015 -0 -0.0146094 -8.82857e-005 -5.41122e-007 3.18028e-007 1.88485e-007 1.95433e-006 9.54166e-015 3.18055e-015 -0 -0.018742 -0.00117406 5.28165e-005 -3.18055e-015 4.77083e-015 -3.18055e-015 9.54166e-015 3.18055e-015 -0 -0.0122721 -0.00324815 0.000674024 -6.36111e-015 7.95139e-015 -3.18055e-015 9.54166e-015 3.18055e-015 -0 1.14783e-006 4.6637e-007 -3.17741e-007 6.36111e-015 4.77083e-015 3.18055e-015 -6.18128 1.45126 -17.9018 20.0248 56.9874 -32.3561 -32.116 48.6231 73.3074 -0.573334 -1.45399 -8.27714 -3.18055e-015 3.18055e-015 9.54166e-015 -7.54704e-007 1.68284e-006 -4.03742e-007 -1.59028e-014 2.54444e-014 1.59028e-014 -3.18055e-015 3.18055e-015 9.54166e-015 0.0150106 -9.21981e-005 3.0747e-006 3.53113e-031 6.36111e-015 -3.18055e-015 -3.18055e-015 3.18055e-015 9.54166e-015 0.0189945 -0.00118729 -6.27739e-005 -4.52263e-007 3.85558e-007 -1.80956e-006 -3.18055e-015 3.18055e-015 9.54166e-015 0.0122496 -0.00324369 -0.000667191 6.36111e-015 -6.36111e-015 3.18055e-015 -3.18055e-015 3.18055e-015 9.54166e-015 -7.54704e-007 1.68284e-006 -4.03742e-007 -1.59028e-014 2.54444e-014 1.59028e-014 -44.4272 32.5661 -28.6899 -70.4139 38.8007 70.6671 14.3248 13.7909 15.3762 -1.59657e-006 -1.45314e-006 -1.3711e-006 43.6683 32.6631 28.2048 70.9755 39.0968 -71.0525 -15.5043 13.3885 -14.5914 1.64109e-006 -3.51523e-007 -1.33318e-007 
